<svg width="60" height="60" fill="none" xmlns="http://www.w3.org/2000/svg"><circle cx="30" cy="30" r="30" fill="#EFFF8F" fill-opacity=".8"/><path d="M51.79 30.316c0 12.208-9.897 22.105-22.106 22.105-12.208 0-22.105-9.897-22.105-22.105 0-12.209 9.897-22.106 22.105-22.106 12.209 0 22.105 9.897 22.105 22.106z" fill="#BCD750" fill-opacity=".8"/><path d="M25.724 35.814l-3.114 1.798.433 2.117-1.889 1.09-1.767-10.471 1.645-.95 8.203 6.756-1.888 1.09-1.623-1.43zm-3.465.082l2.154-1.244-2.946-2.6.792 3.844zm8.734-2.659l3.771-2.177.824 1.427-5.547 3.202-4.977-8.62 1.776-1.025 4.153 7.193zm9.945-9.325c.49.848.77 1.679.839 2.492.069.812-.077 1.554-.437 2.225-.356.668-.895 1.211-1.617 1.628-.714.412-1.45.609-2.21.589-.758-.02-1.475-.259-2.15-.716-.676-.462-1.256-1.106-1.739-1.932l-.246-.427c-.49-.848-.768-1.682-.836-2.5-.066-.826.08-1.57.439-2.235.36-.671.899-1.214 1.617-1.629.718-.414 1.456-.609 2.213-.583.759.02 1.477.266 2.154.738.68.465 1.263 1.12 1.75 1.965l.223.385zm-2.025.648c-.522-.904-1.08-1.497-1.675-1.78-.595-.283-1.192-.25-1.792.096-.596.344-.922.842-.976 1.494-.057.65.17 1.423.684 2.32l.243.421c.508.88 1.064 1.47 1.668 1.768.604.299 1.21.273 1.817-.078.596-.344.92-.842.97-1.492.049-.654-.183-1.43-.697-2.329l-.242-.42z" fill="#717171"/></svg>