<svg width="58" height="60" fill="none" xmlns="http://www.w3.org/2000/svg"><path d="M51 33h-2a3 3 0 000 6h2a1 1 0 01.92 1.388.979.979 0 01-.227.325A.958.958 0 0151 41h-6.323a3.808 3.808 0 00-5.056-4.565 8.955 8.955 0 00-3.568-4.875 11.02 11.02 0 007.869-9.3l2.861.715a4.99 4.99 0 001.076.118 5.129 5.129 0 003.211-1.149 5.089 5.089 0 00-4.312-8.916l-2.815.7C43.362 5.469 37.11 0 28 0c-8.367 0-15.243 6.055-15.932 13.736l-2.851-.713a5.093 5.093 0 10.025 9.947l2.836-.709a11.019 11.019 0 007.869 9.3 8.955 8.955 0 00-3.568 4.875 3.824 3.824 0 00-4.086 6.272l1.456 1.456A7.676 7.676 0 0016 49.41v3.49l-8-.8V52a4 4 0 10-8 0v8h56v-8a4 4 0 10-8 0v.1l-8 .8v-3.49A7.922 7.922 0 0041.637 47H51a7.009 7.009 0 007-7 7.009 7.009 0 00-7-7zm-7-14.342c1.163-.451 3.269-.974 4.293.049l1.414-1.414c-1.635-1.637-4.135-1.237-5.707-.748v-.765l3.217-.8a3.09 3.09 0 11.025 6.053L44 20.219v-1.561zm-32-2.113c-1.572-.488-4.072-.887-5.707.748l1.414 1.414c1.086-1.086 3.269-.437 4.293-.045v1.558l-3.217.8a3.072 3.072 0 01-2.6-5.409 3.147 3.147 0 011.963-.711c.206 0 .412.023.614.067l3.24.814v.764zM6 58H2v-6a2 2 0 014 0v6zm44-6a2 2 0 014 0v6h-4v-6zM14 15c0-7.168 6.28-13 14-13 8.505 0 14 5.1 14 13v4.234l-3-1.8V14a5.938 5.938 0 00-6-6 5.816 5.816 0 00-5 2.5A5.817 5.817 0 0023 8a5.937 5.937 0 00-6 6v3.434l-3 1.8V15zm.028 6.549L19 18.566V14a3.961 3.961 0 014-4 3.785 3.785 0 014 4h2a3.785 3.785 0 014-4 3.961 3.961 0 014 4v4.566l4.972 2.983A9 9 0 0133 30H23a9 9 0 01-8.972-8.451zM25 32h6a6.99 6.99 0 016.68 4.908c-1.3-.64-2.73-.97-4.18-.968a9.2 9.2 0 00-5.5 1.767 9.533 9.533 0 00-9.679-.794A6.988 6.988 0 0125 32zm-9.293 11.293l-2-2a1.829 1.829 0 012.586-2.586l2 2a1.829 1.829 0 01-2.586 2.586zM8 58v-3.9l10 1v-3.839L25.413 58H8zm9.675-9.738A5.915 5.915 0 0116 45.677a3.815 3.815 0 003.705-6.384l-.559-.559a7.4 7.4 0 018.178 1 1 1 0 001.349 0 7.1 7.1 0 014.825-1.8 7.41 7.41 0 013.356.79l-.563.563A3.8 3.8 0 0040 45.677a5.907 5.907 0 01-1.671 2.583L28 57.648l-10.325-9.386zM48 54.105V58H30.587L38 51.261v3.844l10-1zm-7.707-10.812a1.829 1.829 0 01-2.586-2.586l2-2a1.829 1.829 0 012.586 2.586l-2 2zM51 45h-8.814a7.49 7.49 0 00.065-.837L43.414 43H51a3.015 3.015 0 003-3 3 3 0 00-3-3h-2a1 1 0 010-2h2a5.009 5.009 0 015 5 5.006 5.006 0 01-5 5z" fill="#000" fill-opacity=".58"/><path d="M27 21h-2v2h2v-2zm4 0h-2v2h2v-2zm-5-3a1 1 0 00-.553-.895l-4-2-.894 1.79L22.764 18l-2.211 1.105.894 1.79 4-2A1 1 0 0026 18zm4.553.9l4 2 .894-1.79L33.236 18l2.211-1.1-.894-1.79-4 2a1 1 0 000 1.79zM26 26a1 1 0 01-1-1h-2a2.988 2.988 0 005 2.22A2.987 2.987 0 0033 25h-2a1 1 0 11-2 0h-2a1 1 0 01-1 1z" fill="#000" fill-opacity=".58"/></svg>